<svg xmlns="http://www.w3.org/2000/svg" xmlns:xlink="http://www.w3.org/1999/xlink" version="1.1" data-diagram-type="DESCRIPTION" style="width:3790px;height:2344px;background:#FFFFFF;" width="3790px" height="2344px" viewBox="0 0 3790 2344" zoomAndPan="magnify" preserveAspectRatio="none" contentStyleType="text/css"><?plantuml 1.2026.9beta4?><defs/><g font-family="sans-serif" lengthAdjust="spacing"><g class="title" data-source-line="27"><text x="1408.238" y="45.99" fill="#000" font-size="28" textLength="960.805" font-weight="700" font-family="Helvetica">Deployment: two farms, one aggregator, one cloud endpoint</text></g><!--cluster F1--><g class="cluster" data-qualified-name="F1" id="ent0001" data-source-line="29"><polygon points="81.1,106.594,101.1,86.594,1605.1,86.594,1605.1,335.794,1585.1,355.794,81.1,355.794,81.1,106.594" fill="#FFF" style="stroke:#52514E;stroke-width:2;stroke-linejoin:miter;stroke-miterlimit:10;"/><line x1="1585.1" y1="106.594" x2="1605.1" y2="86.594" style="stroke:#52514E;stroke-width:2;"/><line x1="81.1" y1="106.594" x2="1585.1" y2="106.594" style="stroke:#52514E;stroke-width:2;"/><line x1="1585.1" y1="106.594" x2="1585.1" y2="355.794" style="stroke:#52514E;stroke-width:2;"/><text x="644.705" y="164.574" fill="#000" font-size="56" textLength="380.789" font-weight="700" font-family="Helvetica">Farm 1 field</text></g><!--cluster G1--><g class="cluster" data-qualified-name="G1" id="ent0005" data-source-line="35"><polygon points="501.1,573.794,521.1,553.794,1185.1,553.794,1185.1,1892.534,1165.1,1912.534,501.1,1912.534,501.1,573.794" fill="#FFF" style="stroke:#52514E;stroke-width:2;stroke-linejoin:miter;stroke-miterlimit:10;"/><line x1="1165.1" y1="573.794" x2="1185.1" y2="553.794" style="stroke:#52514E;stroke-width:2;"/><line x1="501.1" y1="573.794" x2="1165.1" y2="573.794" style="stroke:#52514E;stroke-width:2;"/><line x1="1165.1" y1="573.794" x2="1165.1" y2="1912.534" style="stroke:#52514E;stroke-width:2;"/><text x="580.789" y="631.774" fill="#000" font-size="56" textLength="508.621" font-weight="700" font-family="Helvetica">Farm 1 gateway</text><text x="607.573" y="696.962" fill="#000" font-size="56" textLength="455.055" font-weight="700" font-family="Helvetica">(Raspberry Pi)</text></g><!--cluster F2--><g class="cluster" data-qualified-name="F2" id="ent0010" data-source-line="42"><polygon points="2071.1,106.594,2091.1,86.594,3595.1,86.594,3595.1,335.794,3575.1,355.794,2071.1,355.794,2071.1,106.594" fill="#FFF" style="stroke:#52514E;stroke-width:2;stroke-linejoin:miter;stroke-miterlimit:10;"/><line x1="3575.1" y1="106.594" x2="3595.1" y2="86.594" style="stroke:#52514E;stroke-width:2;"/><line x1="2071.1" y1="106.594" x2="3575.1" y2="106.594" style="stroke:#52514E;stroke-width:2;"/><line x1="3575.1" y1="106.594" x2="3575.1" y2="355.794" style="stroke:#52514E;stroke-width:2;"/><text x="2634.705" y="164.574" fill="#000" font-size="56" textLength="380.789" font-weight="700" font-family="Helvetica">Farm 2 field</text></g><!--cluster G2--><g class="cluster" data-qualified-name="G2" id="ent0014" data-source-line="48"><polygon points="2491.1,573.794,2511.1,553.794,3175.1,553.794,3175.1,1892.534,3155.1,1912.534,2491.1,1912.534,2491.1,573.794" fill="#FFF" style="stroke:#52514E;stroke-width:2;stroke-linejoin:miter;stroke-miterlimit:10;"/><line x1="3155.1" y1="573.794" x2="3175.1" y2="553.794" style="stroke:#52514E;stroke-width:2;"/><line x1="2491.1" y1="573.794" x2="3155.1" y2="573.794" style="stroke:#52514E;stroke-width:2;"/><line x1="3155.1" y1="573.794" x2="3155.1" y2="1912.534" style="stroke:#52514E;stroke-width:2;"/><text x="2570.789" y="631.774" fill="#000" font-size="56" textLength="508.621" font-weight="700" font-family="Helvetica">Farm 2 gateway</text><text x="2597.573" y="696.962" fill="#000" font-size="56" textLength="455.055" font-weight="700" font-family="Helvetica">(Raspberry Pi)</text></g><!--cluster L--><g class="cluster" data-qualified-name="L" id="ent0019" data-source-line="55"><polygon points="1233.1,1663.354,1253.1,1643.354,2443.1,1643.354,2443.1,2274.914,2423.1,2294.914,1233.1,2294.914,1233.1,1663.354" fill="#FFF" style="stroke:#52514E;stroke-width:2;stroke-linejoin:miter;stroke-miterlimit:10;"/><line x1="2423.1" y1="1663.354" x2="2443.1" y2="1643.354" style="stroke:#52514E;stroke-width:2;"/><line x1="1233.1" y1="1663.354" x2="2423.1" y2="1663.354" style="stroke:#52514E;stroke-width:2;"/><line x1="2423.1" y1="1663.354" x2="2423.1" y2="2294.914" style="stroke:#52514E;stroke-width:2;"/><text x="1720.657" y="1721.334" fill="#000" font-size="56" textLength="218.887" font-weight="700" font-family="Helvetica">Laptop</text></g><!--entity S1--><g class="entity" data-qualified-name="F1.S1" id="ent0002" data-source-line="30"><rect x="113.32" y="198.594" width="439.57" height="125.188" fill="#EEF4FC" style="stroke:#2A78D6;stroke-width:1;" rx="8" ry="8"/><rect x="512.89" y="208.594" width="30" height="20" fill="#EEF4FC" style="stroke:#2A78D6;stroke-width:1;"/><rect x="508.89" y="212.594" width="8" height="4" fill="#EEF4FC" style="stroke:#2A78D6;stroke-width:1;"/><rect x="508.89" y="220.594" width="8" height="4" fill="#EEF4FC" style="stroke:#2A78D6;stroke-width:1;"/><text x="143.32" y="290.574" fill="#000" font-size="56" textLength="359.57" font-family="Helvetica">ESP32 soil01</text></g><!--entity S2--><g class="entity" data-qualified-name="F1.S2" id="ent0003" data-source-line="31"><rect x="623.32" y="198.594" width="439.57" height="125.188" fill="#EEF4FC" style="stroke:#2A78D6;stroke-width:1;" rx="8" ry="8"/><rect x="1022.89" y="208.594" width="30" height="20" fill="#EEF4FC" style="stroke:#2A78D6;stroke-width:1;"/><rect x="1018.89" y="212.594" width="8" height="4" fill="#EEF4FC" style="stroke:#2A78D6;stroke-width:1;"/><rect x="1018.89" y="220.594" width="8" height="4" fill="#EEF4FC" style="stroke:#2A78D6;stroke-width:1;"/><text x="653.32" y="290.574" fill="#000" font-size="56" textLength="359.57" font-family="Helvetica">ESP32 soil02</text></g><!--entity S3--><g class="entity" data-qualified-name="F1.S3" id="ent0004" data-source-line="32"><rect x="1133.32" y="198.594" width="439.57" height="125.188" fill="#EEF4FC" style="stroke:#2A78D6;stroke-width:1;" rx="8" ry="8"/><rect x="1532.89" y="208.594" width="30" height="20" fill="#EEF4FC" style="stroke:#2A78D6;stroke-width:1;"/><rect x="1528.89" y="212.594" width="8" height="4" fill="#EEF4FC" style="stroke:#2A78D6;stroke-width:1;"/><rect x="1528.89" y="220.594" width="8" height="4" fill="#EEF4FC" style="stroke:#2A78D6;stroke-width:1;"/><text x="1163.32" y="290.574" fill="#000" font-size="56" textLength="359.57" font-family="Helvetica">ESP32 soil03</text></g><!--entity B1--><g class="entity" data-qualified-name="G1.B1" id="ent0006" data-source-line="36"><rect x="622.42" y="731.794" width="441.348" height="125.188" fill="#EEF4FC" style="stroke:#2A78D6;stroke-width:1;" rx="8" ry="8"/><rect x="1023.768" y="741.794" width="30" height="20" fill="#EEF4FC" style="stroke:#2A78D6;stroke-width:1;"/><rect x="1019.768" y="745.794" width="8" height="4" fill="#EEF4FC" style="stroke:#2A78D6;stroke-width:1;"/><rect x="1019.768" y="753.794" width="8" height="4" fill="#EEF4FC" style="stroke:#2A78D6;stroke-width:1;"/><text x="652.42" y="823.774" fill="#000" font-size="56" textLength="361.348" font-family="Helvetica">MQTT broker</text></g><!--entity D1--><g class="entity" data-qualified-name="G1.D1" id="ent0007" data-source-line="37"><rect x="532.36" y="978.974" width="621.461" height="125.188" fill="#EEF4FC" style="stroke:#2A78D6;stroke-width:1;" rx="8" ry="8"/><rect x="1113.821" y="988.974" width="30" height="20" fill="#EEF4FC" style="stroke:#2A78D6;stroke-width:1;"/><rect x="1109.821" y="992.974" width="8" height="4" fill="#EEF4FC" style="stroke:#2A78D6;stroke-width:1;"/><rect x="1109.821" y="1000.974" width="8" height="4" fill="#EEF4FC" style="stroke:#2A78D6;stroke-width:1;"/><text x="562.36" y="1070.954" fill="#000" font-size="56" textLength="541.461" font-family="Helvetica">Local GRU detector</text></g><!--entity R1--><g class="entity" data-qualified-name="G1.R1" id="ent0008" data-source-line="38"><rect x="608.28" y="1292.154" width="469.648" height="125.188" fill="#EEF4FC" style="stroke:#2A78D6;stroke-width:1;" rx="8" ry="8"/><rect x="1037.928" y="1302.154" width="30" height="20" fill="#EEF4FC" style="stroke:#2A78D6;stroke-width:1;"/><rect x="1033.928" y="1306.154" width="8" height="4" fill="#EEF4FC" style="stroke:#2A78D6;stroke-width:1;"/><rect x="1033.928" y="1314.154" width="8" height="4" fill="#EEF4FC" style="stroke:#2A78D6;stroke-width:1;"/><text x="638.28" y="1384.134" fill="#000" font-size="56" textLength="389.648" font-family="Helvetica">Verdict router</text></g><!--entity A1--><g class="entity" data-qualified-name="G1.A1" id="ent0009" data-source-line="39"><rect x="533.22" y="1755.354" width="343.758" height="125.188" fill="#EEF4FC" style="stroke:#2A78D6;stroke-width:1;" rx="8" ry="8"/><rect x="836.978" y="1765.354" width="30" height="20" fill="#EEF4FC" style="stroke:#2A78D6;stroke-width:1;"/><rect x="832.978" y="1769.354" width="8" height="4" fill="#EEF4FC" style="stroke:#2A78D6;stroke-width:1;"/><rect x="832.978" y="1777.354" width="8" height="4" fill="#EEF4FC" style="stroke:#2A78D6;stroke-width:1;"/><text x="563.22" y="1847.334" fill="#000" font-size="56" textLength="263.758" font-family="Helvetica">Alert sink</text></g><!--entity S4--><g class="entity" data-qualified-name="F2.S4" id="ent0011" data-source-line="43"><rect x="2103.32" y="198.594" width="439.57" height="125.188" fill="#EEF4FC" style="stroke:#2A78D6;stroke-width:1;" rx="8" ry="8"/><rect x="2502.89" y="208.594" width="30" height="20" fill="#EEF4FC" style="stroke:#2A78D6;stroke-width:1;"/><rect x="2498.89" y="212.594" width="8" height="4" fill="#EEF4FC" style="stroke:#2A78D6;stroke-width:1;"/><rect x="2498.89" y="220.594" width="8" height="4" fill="#EEF4FC" style="stroke:#2A78D6;stroke-width:1;"/><text x="2133.32" y="290.574" fill="#000" font-size="56" textLength="359.57" font-family="Helvetica">ESP32 soil04</text></g><!--entity S5--><g class="entity" data-qualified-name="F2.S5" id="ent0012" data-source-line="44"><rect x="2613.32" y="198.594" width="439.57" height="125.188" fill="#EEF4FC" style="stroke:#2A78D6;stroke-width:1;" rx="8" ry="8"/><rect x="3012.89" y="208.594" width="30" height="20" fill="#EEF4FC" style="stroke:#2A78D6;stroke-width:1;"/><rect x="3008.89" y="212.594" width="8" height="4" fill="#EEF4FC" style="stroke:#2A78D6;stroke-width:1;"/><rect x="3008.89" y="220.594" width="8" height="4" fill="#EEF4FC" style="stroke:#2A78D6;stroke-width:1;"/><text x="2643.32" y="290.574" fill="#000" font-size="56" textLength="359.57" font-family="Helvetica">ESP32 soil05</text></g><!--entity S6--><g class="entity" data-qualified-name="F2.S6" id="ent0013" data-source-line="45"><rect x="3123.32" y="198.594" width="439.57" height="125.188" fill="#EEF4FC" style="stroke:#2A78D6;stroke-width:1;" rx="8" ry="8"/><rect x="3522.89" y="208.594" width="30" height="20" fill="#EEF4FC" style="stroke:#2A78D6;stroke-width:1;"/><rect x="3518.89" y="212.594" width="8" height="4" fill="#EEF4FC" style="stroke:#2A78D6;stroke-width:1;"/><rect x="3518.89" y="220.594" width="8" height="4" fill="#EEF4FC" style="stroke:#2A78D6;stroke-width:1;"/><text x="3153.32" y="290.574" fill="#000" font-size="56" textLength="359.57" font-family="Helvetica">ESP32 soil06</text></g><!--entity B2--><g class="entity" data-qualified-name="G2.B2" id="ent0015" data-source-line="49"><rect x="2612.42" y="731.794" width="441.348" height="125.188" fill="#EEF4FC" style="stroke:#2A78D6;stroke-width:1;" rx="8" ry="8"/><rect x="3013.768" y="741.794" width="30" height="20" fill="#EEF4FC" style="stroke:#2A78D6;stroke-width:1;"/><rect x="3009.768" y="745.794" width="8" height="4" fill="#EEF4FC" style="stroke:#2A78D6;stroke-width:1;"/><rect x="3009.768" y="753.794" width="8" height="4" fill="#EEF4FC" style="stroke:#2A78D6;stroke-width:1;"/><text x="2642.42" y="823.774" fill="#000" font-size="56" textLength="361.348" font-family="Helvetica">MQTT broker</text></g><!--entity D2--><g class="entity" data-qualified-name="G2.D2" id="ent0016" data-source-line="50"><rect x="2522.36" y="978.974" width="621.461" height="125.188" fill="#EEF4FC" style="stroke:#2A78D6;stroke-width:1;" rx="8" ry="8"/><rect x="3103.821" y="988.974" width="30" height="20" fill="#EEF4FC" style="stroke:#2A78D6;stroke-width:1;"/><rect x="3099.821" y="992.974" width="8" height="4" fill="#EEF4FC" style="stroke:#2A78D6;stroke-width:1;"/><rect x="3099.821" y="1000.974" width="8" height="4" fill="#EEF4FC" style="stroke:#2A78D6;stroke-width:1;"/><text x="2552.36" y="1070.954" fill="#000" font-size="56" textLength="541.461" font-family="Helvetica">Local GRU detector</text></g><!--entity R2--><g class="entity" data-qualified-name="G2.R2" id="ent0017" data-source-line="51"><rect x="2522.28" y="1292.154" width="469.648" height="125.188" fill="#EEF4FC" style="stroke:#2A78D6;stroke-width:1;" rx="8" ry="8"/><rect x="2951.928" y="1302.154" width="30" height="20" fill="#EEF4FC" style="stroke:#2A78D6;stroke-width:1;"/><rect x="2947.928" y="1306.154" width="8" height="4" fill="#EEF4FC" style="stroke:#2A78D6;stroke-width:1;"/><rect x="2947.928" y="1314.154" width="8" height="4" fill="#EEF4FC" style="stroke:#2A78D6;stroke-width:1;"/><text x="2552.28" y="1384.134" fill="#000" font-size="56" textLength="389.648" font-family="Helvetica">Verdict router</text></g><!--entity A2--><g class="entity" data-qualified-name="G2.A2" id="ent0018" data-source-line="52"><rect x="2523.22" y="1755.354" width="343.758" height="125.188" fill="#EEF4FC" style="stroke:#2A78D6;stroke-width:1;" rx="8" ry="8"/><rect x="2826.978" y="1765.354" width="30" height="20" fill="#EEF4FC" style="stroke:#2A78D6;stroke-width:1;"/><rect x="2822.978" y="1769.354" width="8" height="4" fill="#EEF4FC" style="stroke:#2A78D6;stroke-width:1;"/><rect x="2822.978" y="1777.354" width="8" height="4" fill="#EEF4FC" style="stroke:#2A78D6;stroke-width:1;"/><text x="2553.22" y="1847.334" fill="#000" font-size="56" textLength="263.758" font-family="Helvetica">Alert sink</text></g><!--entity AGG--><g class="entity" data-qualified-name="L.AGG" id="ent0020" data-source-line="56"><rect x="1327.96" y="2072.534" width="462.266" height="190.375" fill="#EEF4FC" style="stroke:#2A78D6;stroke-width:1;" rx="8" ry="8"/><rect x="1750.226" y="2082.534" width="30" height="20" fill="#EEF4FC" style="stroke:#2A78D6;stroke-width:1;"/><rect x="1746.226" y="2086.534" width="8" height="4" fill="#EEF4FC" style="stroke:#2A78D6;stroke-width:1;"/><rect x="1746.226" y="2094.534" width="8" height="4" fill="#EEF4FC" style="stroke:#2A78D6;stroke-width:1;"/><text x="1357.96" y="2164.514" fill="#000" font-size="56" textLength="315.984" font-family="Helvetica">Aggregator</text><text x="1357.96" y="2229.702" fill="#000" font-size="56" textLength="382.266" font-family="Helvetica">(master GRU)</text></g><!--entity SIM--><g class="entity" data-qualified-name="L.SIM" id="ent0021" data-source-line="57"><rect x="1265.1" y="1755.354" width="588.02" height="125.188" fill="#EEF4FC" style="stroke:#2A78D6;stroke-width:1;" rx="8" ry="8"/><rect x="1813.12" y="1765.354" width="30" height="20" fill="#EEF4FC" style="stroke:#2A78D6;stroke-width:1;"/><rect x="1809.12" y="1769.354" width="8" height="4" fill="#EEF4FC" style="stroke:#2A78D6;stroke-width:1;"/><rect x="1809.12" y="1777.354" width="8" height="4" fill="#EEF4FC" style="stroke:#2A78D6;stroke-width:1;"/><text x="1295.1" y="1847.334" fill="#000" font-size="56" textLength="508.02" font-family="Helvetica">Simulated client 3</text></g><!--entity CLOUD--><g class="entity" data-qualified-name="L.CLOUD" id="ent0022" data-source-line="58"><rect x="1923.78" y="1755.354" width="486.656" height="125.188" fill="#EEF4FC" style="stroke:#2A78D6;stroke-width:1;" rx="8" ry="8"/><rect x="2370.436" y="1765.354" width="30" height="20" fill="#EEF4FC" style="stroke:#2A78D6;stroke-width:1;"/><rect x="2366.436" y="1769.354" width="8" height="4" fill="#EEF4FC" style="stroke:#2A78D6;stroke-width:1;"/><rect x="2366.436" y="1777.354" width="8" height="4" fill="#EEF4FC" style="stroke:#2A78D6;stroke-width:1;"/><text x="1953.78" y="1847.334" fill="#000" font-size="56" textLength="406.656" font-family="Helvetica">Cloud receiver</text></g><!--link S1 to B1--><g class="link" data-entity-1="ent0002" data-entity-2="ent0006" id="lnk23" data-source-line="61" data-link-type="dependency"><path d="M354.72,324.534 C376.5,380.274 414.12,462.574 465.1,521.794 C539.86,608.654 639.407,677.28 720.867,725.76" style="stroke:#52514E;stroke-width:2;" fill="none" id="S1-to-B1"/><polygon points="729.46,730.874,718.083,714.794,720.867,725.76,709.901,728.543,729.46,730.874" fill="#52514E" style="stroke:#52514E;stroke-width:2;stroke-linejoin:miter;stroke-miterlimit:10;"/><text x="467.1" y="441.774" fill="#000" font-size="56" textLength="358.777" font-family="Helvetica">MQTT (plain)</text><text x="505.34" y="506.962" fill="#000" font-size="56" textLength="282.297" font-family="Helvetica">farm-local</text></g><!--link S2 to B1--><g class="link" data-entity-1="ent0003" data-entity-2="ent0006" id="lnk24" data-source-line="62" data-link-type="dependency"><path d="M843.1,324.414 C843.1,426.174 843.1,618.974 843.1,720.894" style="stroke:#52514E;stroke-width:2;" fill="none" id="S2-to-B1"/><polygon points="843.1,730.894,851.1,712.894,843.1,720.894,835.1,712.894,843.1,730.894" fill="#52514E" style="stroke:#52514E;stroke-width:2;stroke-linejoin:miter;stroke-miterlimit:10;"/></g><!--link S3 to B1--><g class="link" data-entity-1="ent0004" data-entity-2="ent0006" id="lnk25" data-source-line="63" data-link-type="dependency"><path d="M1294.1,324.414 C1196.04,426.174 1007.54,621.774 909.3,723.694" style="stroke:#52514E;stroke-width:2;" fill="none" id="S3-to-B1"/><polygon points="902.36,730.894,920.612,723.486,909.3,723.694,909.092,712.382,902.36,730.894" fill="#52514E" style="stroke:#52514E;stroke-width:2;stroke-linejoin:miter;stroke-miterlimit:10;"/></g><!--link S4 to B2--><g class="link" data-entity-1="ent0011" data-entity-2="ent0015" id="lnk26" data-source-line="64" data-link-type="dependency"><path d="M2344.72,324.534 C2366.5,380.274 2404.12,462.574 2455.1,521.794 C2529.86,608.654 2629.407,677.28 2710.867,725.76" style="stroke:#52514E;stroke-width:2;" fill="none" id="S4-to-B2"/><polygon points="2719.46,730.874,2708.083,714.794,2710.867,725.76,2699.901,728.543,2719.46,730.874" fill="#52514E" style="stroke:#52514E;stroke-width:2;stroke-linejoin:miter;stroke-miterlimit:10;"/><text x="2457.1" y="441.774" fill="#000" font-size="56" textLength="358.777" font-family="Helvetica">MQTT (plain)</text><text x="2495.34" y="506.962" fill="#000" font-size="56" textLength="282.297" font-family="Helvetica">farm-local</text></g><!--link S5 to B2--><g class="link" data-entity-1="ent0012" data-entity-2="ent0015" id="lnk27" data-source-line="65" data-link-type="dependency"><path d="M2833.1,324.414 C2833.1,426.174 2833.1,618.974 2833.1,720.894" style="stroke:#52514E;stroke-width:2;" fill="none" id="S5-to-B2"/><polygon points="2833.1,730.894,2841.1,712.894,2833.1,720.894,2825.1,712.894,2833.1,730.894" fill="#52514E" style="stroke:#52514E;stroke-width:2;stroke-linejoin:miter;stroke-miterlimit:10;"/></g><!--link S6 to B2--><g class="link" data-entity-1="ent0013" data-entity-2="ent0015" id="lnk28" data-source-line="66" data-link-type="dependency"><path d="M3284.1,324.414 C3186.04,426.174 2997.54,621.774 2899.3,723.694" style="stroke:#52514E;stroke-width:2;" fill="none" id="S6-to-B2"/><polygon points="2892.36,730.894,2910.612,723.486,2899.3,723.694,2899.092,712.382,2892.36,730.894" fill="#52514E" style="stroke:#52514E;stroke-width:2;stroke-linejoin:miter;stroke-miterlimit:10;"/></g><!--link B1 to D1--><g class="link" data-entity-1="ent0006" data-entity-2="ent0007" id="lnk29" data-source-line="68" data-link-type="dependency"><path d="M843.1,857.754 C843.1,894.614 843.1,931.354 843.1,968.214" style="stroke:#52514E;stroke-width:2;" fill="none" id="B1-to-D1"/><polygon points="843.1,978.214,851.1,960.214,843.1,968.214,835.1,960.214,843.1,978.214" fill="#52514E" style="stroke:#52514E;stroke-width:2;stroke-linejoin:miter;stroke-miterlimit:10;"/></g><!--link B2 to D2--><g class="link" data-entity-1="ent0015" data-entity-2="ent0016" id="lnk30" data-source-line="69" data-link-type="dependency"><path d="M2833.1,857.754 C2833.1,894.614 2833.1,931.354 2833.1,968.214" style="stroke:#52514E;stroke-width:2;" fill="none" id="B2-to-D2"/><polygon points="2833.1,978.214,2841.1,960.214,2833.1,968.214,2825.1,960.214,2833.1,978.214" fill="#52514E" style="stroke:#52514E;stroke-width:2;stroke-linejoin:miter;stroke-miterlimit:10;"/></g><!--link D1 to R1--><g class="link" data-entity-1="ent0007" data-entity-2="ent0008" id="lnk31" data-source-line="70" data-link-type="dependency"><path d="M843.1,1104.654 C843.1,1158.694 843.1,1227.114 843.1,1281.274" style="stroke:#52514E;stroke-width:2;" fill="none" id="D1-to-R1"/><polygon points="843.1,1291.274,851.1,1273.274,843.1,1281.274,835.1,1273.274,843.1,1291.274" fill="#52514E" style="stroke:#52514E;stroke-width:2;stroke-linejoin:miter;stroke-miterlimit:10;"/><text x="845.1" y="1218.134" fill="#000" font-size="56" textLength="194.469" font-family="Helvetica">verdict</text></g><!--link D2 to R2--><g class="link" data-entity-1="ent0016" data-entity-2="ent0017" id="lnk32" data-source-line="71" data-link-type="dependency"><path d="M2818.08,1104.654 C2804.8,1158.694 2787.905,1227.402 2774.605,1281.562" style="stroke:#52514E;stroke-width:2;" fill="none" id="D2-to-R2"/><polygon points="2772.22,1291.274,2784.282,1275.701,2774.605,1281.562,2768.744,1271.885,2772.22,1291.274" fill="#52514E" style="stroke:#52514E;stroke-width:2;stroke-linejoin:miter;stroke-miterlimit:10;"/><text x="2803.1" y="1218.134" fill="#000" font-size="56" textLength="194.469" font-family="Helvetica">verdict</text></g><!--link R1 to A1--><g class="link" data-entity-1="ent0008" data-entity-2="ent0009" id="lnk33" data-source-line="73" data-link-type="dependency"><path d="M824.78,1417.734 C798.38,1505.554 752.819,1657.177 726.379,1745.137" style="stroke:#52514E;stroke-width:2;" fill="none" id="R1-to-A1"/><polygon points="723.5,1754.714,736.343,1739.779,726.379,1745.137,721.02,1735.173,723.5,1754.714" fill="#52514E" style="stroke:#52514E;stroke-width:2;stroke-linejoin:miter;stroke-miterlimit:10;"/><text x="882.883" y="1531.334" fill="#000" font-size="56" textLength="298.594" font-weight="700" font-family="Helvetica">malicious</text><text x="807.1" y="1596.522" fill="#000" font-size="56" textLength="450.16" font-family="Helvetica">terminates here</text></g><!--link R2 to A2--><g class="link" data-entity-1="ent0017" data-entity-2="ent0018" id="lnk34" data-source-line="74" data-link-type="dependency"><path d="M2698.38,1417.914 C2684.82,1435.734 2672.26,1456.154 2665.1,1477.354 C2633.64,1570.434 2653.11,1676.042 2672.43,1745.222" style="stroke:#52514E;stroke-width:2;" fill="none" id="R2-to-A2"/><polygon points="2675.12,1754.854,2677.984,1735.365,2672.43,1745.222,2662.573,1739.669,2675.12,1754.854" fill="#52514E" style="stroke:#52514E;stroke-width:2;stroke-linejoin:miter;stroke-miterlimit:10;"/><text x="2742.883" y="1531.334" fill="#000" font-size="56" textLength="298.594" font-weight="700" font-family="Helvetica">malicious</text><text x="2667.1" y="1596.522" fill="#000" font-size="56" textLength="450.16" font-family="Helvetica">terminates here</text></g><!--link R1 to CLOUD--><g class="link" data-entity-1="ent0008" data-entity-2="ent0022" id="lnk35" data-source-line="76" data-link-type="dependency"><path d="M1064.54,1418.294 C1300.44,1483.394 1658.56,1580.874 1797.1,1611.354 C1837.64,1620.274 1850.62,1611.794 1889.1,1627.354 C1965.34,1658.174 2034.104,1706.04 2087.524,1748.4" style="stroke:#52514E;stroke-width:2;" fill="none" id="R1-to-CLOUD"/><polygon points="2095.36,1754.614,2086.227,1737.161,2087.524,1748.4,2076.285,1749.698,2095.36,1754.614" fill="#52514E" style="stroke:#52514E;stroke-width:2;stroke-linejoin:miter;stroke-miterlimit:10;"/><text x="1799.1" y="1531.334" fill="#000" font-size="56" textLength="370.617" font-weight="700" font-family="Helvetica">benign only</text><text x="1933.932" y="1596.522" fill="#000" font-size="56" textLength="100.953" font-family="Helvetica">TLS</text></g><!--link R2 to CLOUD--><g class="link" data-entity-1="ent0017" data-entity-2="ent0022" id="lnk36" data-source-line="77" data-link-type="dependency"><path d="M2521.9,1390.314 C2412.46,1410.474 2297.92,1439.594 2259.1,1477.354 C2183.78,1550.614 2168.485,1668.878 2166.325,1744.758" style="stroke:#52514E;stroke-width:2;" fill="none" id="R2-to-CLOUD"/><polygon points="2166.04,1754.754,2174.549,1736.989,2166.325,1744.758,2158.555,1736.533,2166.04,1754.754" fill="#52514E" style="stroke:#52514E;stroke-width:2;stroke-linejoin:miter;stroke-miterlimit:10;"/><text x="2261.1" y="1531.334" fill="#000" font-size="56" textLength="370.617" font-weight="700" font-family="Helvetica">benign only</text><text x="2395.932" y="1596.522" fill="#000" font-size="56" textLength="100.953" font-family="Helvetica">TLS</text></g><!--link D1 to AGG--><g class="link" data-entity-1="ent0007" data-entity-2="ent0020" id="lnk37" data-source-line="79" data-link-type="dependency"><path d="M620.912,1108.371 C370.572,1193.431 12,1361.974 127.1,1611.354 C331.8,2054.914 967.212,2147.034 1317.492,2163.854" style="stroke:#52514E;stroke-width:2;" fill="none" id="D1-AGG"/><polygon points="630.38,1105.154,610.763,1103.37,620.912,1108.371,615.911,1118.519,630.38,1105.154" fill="#52514E" style="stroke:#52514E;stroke-width:2;stroke-linejoin:miter;stroke-miterlimit:10;"/><polygon points="1327.48,2164.334,1309.884,2155.48,1317.492,2163.854,1309.117,2171.461,1327.48,2164.334" fill="#52514E" style="stroke:#52514E;stroke-width:2;stroke-linejoin:miter;stroke-miterlimit:10;"/><text x="190.309" y="1531.334" fill="#000" font-size="56" textLength="499.762" font-weight="700" font-family="Helvetica">Ascon-AEAD128</text><text x="129.1" y="1596.522" fill="#000" font-size="56" textLength="622.18" font-family="Helvetica">sealed both directions</text></g><!--link D2 to AGG--><g class="link" data-entity-1="ent0016" data-entity-2="ent0020" id="lnk38" data-source-line="80" data-link-type="dependency"><path d="M2958.359,1110.678 C2982.279,1127.378 2997.34,1141.494 3015.1,1164.154 C3106.26,1280.534 3101.84,1331.694 3127.1,1477.354 C3165.42,1698.334 3090.72,1808.774 2901.1,1928.534 C2720.06,2042.874 2134.115,2113.162 1800.495,2145.062" style="stroke:#52514E;stroke-width:2;" fill="none" id="D2-AGG"/><polygon points="2950.16,1104.954,2960.339,1121.817,2958.359,1110.678,2969.499,1108.698,2950.16,1104.954" fill="#52514E" style="stroke:#52514E;stroke-width:2;stroke-linejoin:miter;stroke-miterlimit:10;"/><polygon points="1790.54,2146.014,1809.22,2152.264,1800.495,2145.062,1807.697,2136.337,1790.54,2146.014" fill="#52514E" style="stroke:#52514E;stroke-width:2;stroke-linejoin:miter;stroke-miterlimit:10;"/><text x="3198.309" y="1531.334" fill="#000" font-size="56" textLength="499.762" font-weight="700" font-family="Helvetica">Ascon-AEAD128</text><text x="3137.1" y="1596.522" fill="#000" font-size="56" textLength="622.18" font-family="Helvetica">sealed both directions</text></g><!--link SIM to AGG--><g class="link" data-entity-1="ent0021" data-entity-2="ent0020" id="lnk39" data-source-line="81" data-link-type="dependency"><path d="M1559.1,1890.974 C1559.1,1943.894 1559.1,2001.334 1559.1,2062.114" style="stroke:#52514E;stroke-width:2;" fill="none" id="SIM-AGG"/><polygon points="1559.1,1880.974,1551.1,1898.974,1559.1,1890.974,1567.1,1898.974,1559.1,1880.974" fill="#52514E" style="stroke:#52514E;stroke-width:2;stroke-linejoin:miter;stroke-miterlimit:10;"/><polygon points="1559.1,2072.114,1567.1,2054.114,1559.1,2062.114,1551.1,2054.114,1559.1,2072.114" fill="#52514E" style="stroke:#52514E;stroke-width:2;stroke-linejoin:miter;stroke-miterlimit:10;"/><text x="1561.1" y="1998.514" fill="#000" font-size="56" textLength="499.762" font-weight="700" font-family="Helvetica">Ascon-AEAD128</text></g><?plantuml-src dPLVJzim5CNVyocks0DCeh2uVs088GKAtQJ2M09xuiM9RrgBn8vijuLD--wxYGk4GW6jJwxzkyV79pVn9WonAlHzYSh1NEBY01PJxi3CbAKH6jm6heIVh8nsc3aBoBCfJ7Mr4sn2Z4gWEG2B21MlqEmAoIU6btOtFes6vwSxfGY8Cmq79CFkm6fmKmJ3hQCvlAkqSI0jxI2LwnYqkfWvgLMDPpGk5IoaSDF0Phn0O86zbQhYj0i8pFciS6TQkGjU8dp3OevEPlnr9f6_gNw_jMYdNEY5L1F8UM6njMBqJ8aJRHHvR5T4nkZ5YIwqWKzzrWzxxQ8BokYOPxUJPNL3vI8VOBPAQKE9B0bC1_lTNj12b1O8VmA0bshDhrvfAooT_6r9PBgijAeVxQiwY7alprPr6D_R5uDdEe8xddABQsM-vhrLcJ3b-HudcS19Hy_igSyEm2qqXMrAkmra3_XaOd32dJR-VrRecG3gbqfJEmH1ayJ66HL02Bd4Gcm0jt0MDdwU3hbncbns6JMNBBw43PA4Qm7c0ROMw7gWMn_XcGDoYWj-VwEsOcwh58svXqlvkS57BpoT_xowWjJeMpGDSRnYQQoffM4KNrENrc-NzjXm1Vk5HiZCrJtfbahn2X8LI6-HbUgsMOx25UUidHrx8xkUFtblBT3tG7yjCF30u8M3DxDZxsR7FfOTUpyxzdPsxCdvc5TELytqUDLWzDYvTABIVyt8ZZzFD1ezfnDPpWeAG527otfcsMBVpvzp9qt_6ynGpfT-JyO_heUrfoI4JkU8kWWEe8bdgoguL9zlLFr2TOewaI1XIoX8ke-ZdX-nDmlxIoX81W-ZuDXlIHrvx7Kftw6VYsiRSnzlCFIhCMlD1R47eneyJ8zANiXCwfazt4sFRXJbLKf5aLYexveWzX8H-n3z8Dw4uojIL7AYw2jItFkQgt7oeFeULX_giDb-DF9OP3EjEX5TOo7Rzw15ke04fDfDGKXwHlKrPUkp_syfFVxtQly1?></g></svg>
